<svg width="256" height="256" viewBox="0 0 16 16" xmlns="http://www.w3.org/2000/svg"><defs><linearGradient id="backgroundGradient-1750239826921" x1="14.644660940672615%" y1="14.64466094067263%" x2="85.35533905932738%" y2="85.35533905932738%"><stop offset="0%" stop-color="#7649df"/><stop offset="100%" stop-color="#c0a0f8"/></linearGradient></defs><rect x="0" y="0" width="16" height="16" rx="8" fill="url(#backgroundGradient-1750239826921)"/><svg xmlns="http://www.w3.org/2000/svg" viewBox="0 0 16 16" fill="#000000" x="0" y="0" width="16" height="16"><path fill="#000000" d="M12 6V0H4v6H0v7h16V6h-4zm-5 6H1V7h2v1h2V7h2v5zM5 6V1h2v1h2V1h2v5H5zm10 6H9V7h2v1h2V7h2v5zM0 16h3v-1h10v1h3v-2H0v2z"/></svg></svg>